{
    "asset": {
        "generator": "SOLIDWORKSGLTF",
        "version": "2.0"
    },
    "scene": 0,
    "scenes": [
        {
            "name": "Default",
            "nodes": [
                0,
                1
            ]
        }
    ],
    "nodes": [
        {
            "matrix": [
                -0.8292816604727242,
                -0.546439130574942,
                0.11703078304490341,
                0.0,
                -0.25814979941381583,
                0.5603258198397606,
                0.7870156648272681,
                0.0,
                -0.49563152509319697,
                0.6224461841777182,
                -0.6057310782322383,
                0.0,
                -0.24249952665330388,
                0.2653884542529981,
                -0.2412681761232379,
                1.0
            ],
            "camera": 0,
            "name": "current camera"
        },
        {
            "mesh": 0,
            "name": "VILIS CASTING"
        }
    ],
    "cameras": [
        {
            "type": "orthographic",
            "orthographic": {
                "xmag": 0.09031111111111137,
                "ymag": 0.06978585858585878,
                "zfar": 0.5659165848340161,
                "znear": 0.31450529693856377
            }
        }
    ],
    "meshes": [
        {
            "primitives": [
                {
                    "attributes": {
                        "POSITION": 1,
                        "NORMAL": 2
                    },
                    "indices": 0,
                    "material": 0,
                    "mode": 4
                }
            ]
        }
    ],
    "accessors": [
        {
            "bufferView": 0,
            "byteOffset": 0,
            "componentType": 5125,
            "count": 2550,
            "type": "SCALAR",
            "min": [
                0
            ],
            "max": [
                1125
            ]
        },
        {
            "bufferView": 1,
            "byteOffset": 0,
            "componentType": 5126,
            "count": 1126,
            "type": "VEC3",
            "min": [
                -0.12065000087022781,
                -1.8667636701806867e-17,
                -0.03175000101327896
            ],
            "max": [
                0.030403997749090195,
                0.03492499887943268,
                0.03175000101327896
            ]
        },
        {
            "bufferView": 2,
            "byteOffset": 0,
            "componentType": 5126,
            "count": 1126,
            "type": "VEC3",
            "min": [
                -1.0,
                -1.0,
                -1.0
            ],
            "max": [
                1.0,
                1.0,
                1.0
            ]
        }
    ],
    "materials": [
        {
            "name": "satinfinishaluminum",
            "pbrMetallicRoughness": {
                "baseColorFactor": [
                    0.7299189080773666,
                    0.8122415004576116,
                    1.0,
                    1.0
                ],
                "metallicFactor": 1.0,
                "roughnessFactor": 0.4000000059604645
            }
        }
    ],
    "bufferViews": [
        {
            "buffer": 0,
            "byteOffset": 0,
            "byteLength": 10200,
            "target": 34963
        },
        {
            "buffer": 0,
            "byteOffset": 10200,
            "byteLength": 13512,
            "byteStride": 12,
            "target": 34962
        },
        {
            "buffer": 0,
            "byteOffset": 23712,
            "byteLength": 13512,
            "byteStride": 12,
            "target": 34962
        }
    ],
    "buffers": [
        {
            "uri": "VILIS CASTING.bin",
            "byteLength": 37224
        }
    ]
}
