{
    "asset": {
        "generator": "SOLIDWORKSGLTF",
        "version": "2.0"
    },
    "scene": 0,
    "scenes": [
        {
            "name": "Default",
            "nodes": [
                0,
                1
            ]
        }
    ],
    "nodes": [
        {
            "matrix": [
                0.7585145752466539,
                2.7755575615628914e-17,
                -0.6516560742741436,
                0.0,
                -0.3754749746098186,
                0.8173187427108449,
                -0.4370453251727099,
                0.0,
                0.5326107233056281,
                0.5761857971293319,
                0.6199481789684458,
                0.0,
                0.1810254693264667,
                0.17361090750336255,
                0.2043600085392963,
                1.0
            ],
            "camera": 0,
            "name": "current camera"
        },
        {
            "mesh": 0,
            "name": "End Holder"
        }
    ],
    "cameras": [
        {
            "type": "orthographic",
            "orthographic": {
                "xmag": 0.08219537209475077,
                "ymag": 0.06351460570958013,
                "zfar": 0.4470835988628954,
                "znear": 0.2862830916342178
            }
        }
    ],
    "meshes": [
        {
            "primitives": [
                {
                    "attributes": {
                        "POSITION": 1,
                        "NORMAL": 2
                    },
                    "indices": 0,
                    "material": 0,
                    "mode": 4
                }
            ]
        }
    ],
    "accessors": [
        {
            "bufferView": 0,
            "byteOffset": 0,
            "componentType": 5125,
            "count": 6066,
            "type": "SCALAR",
            "min": [
                0
            ],
            "max": [
                2441
            ]
        },
        {
            "bufferView": 1,
            "byteOffset": 0,
            "componentType": 5126,
            "count": 2442,
            "type": "VEC3",
            "min": [
                -0.02539999969303608,
                -0.06667499989271164,
                -0.022224999964237213
            ],
            "max": [
                0.02539999969303608,
                0.022218091413378716,
                0.009525000117719173
            ]
        },
        {
            "bufferView": 2,
            "byteOffset": 0,
            "componentType": 5126,
            "count": 2442,
            "type": "VEC3",
            "min": [
                -1.0,
                -1.0,
                -1.0
            ],
            "max": [
                1.0,
                1.0,
                1.0
            ]
        }
    ],
    "materials": [
        {
            "name": "satinfinishaluminum",
            "pbrMetallicRoughness": {
                "baseColorFactor": [
                    0.7299189080773666,
                    0.8122415004576116,
                    1.0,
                    1.0
                ],
                "metallicFactor": 1.0,
                "roughnessFactor": 0.4000000059604645
            }
        }
    ],
    "bufferViews": [
        {
            "buffer": 0,
            "byteOffset": 0,
            "byteLength": 24264,
            "target": 34963
        },
        {
            "buffer": 0,
            "byteOffset": 24264,
            "byteLength": 29304,
            "byteStride": 12,
            "target": 34962
        },
        {
            "buffer": 0,
            "byteOffset": 53568,
            "byteLength": 29304,
            "byteStride": 12,
            "target": 34962
        }
    ],
    "buffers": [
        {
            "uri": "End Holder.bin",
            "byteLength": 82872
        }
    ]
}
