{
    "asset": {
        "generator": "SOLIDWORKSGLTF",
        "version": "2.0"
    },
    "scene": 0,
    "scenes": [
        {
            "name": "Default",
            "nodes": [
                0,
                1
            ]
        }
    ],
    "nodes": [
        {
            "matrix": [
                0.6570752264628757,
                -3.647500226649368e-17,
                0.7538250107078968,
                0.0,
                0.43438590405680766,
                0.8172788638082106,
                -0.37863457994365785,
                0.0,
                -0.6160852482615621,
                0.5762423611401372,
                0.5370136945201017,
                0.0,
                -0.17076575572769673,
                0.22950938340426463,
                0.2138851466336077,
                1.0
            ],
            "camera": 0,
            "name": "current camera"
        },
        {
            "mesh": 0,
            "name": "Shaft"
        }
    ],
    "cameras": [
        {
            "type": "orthographic",
            "orthographic": {
                "xmag": 0.087203234042128,
                "ymag": 0.06738431721437163,
                "zfar": 0.587538578229858,
                "znear": 0.30366001897211836
            }
        }
    ],
    "meshes": [
        {
            "primitives": [
                {
                    "attributes": {
                        "POSITION": 1,
                        "NORMAL": 2
                    },
                    "indices": 0,
                    "material": 0,
                    "mode": 4
                }
            ]
        }
    ],
    "accessors": [
        {
            "bufferView": 0,
            "byteOffset": 0,
            "componentType": 5125,
            "count": 2118,
            "type": "SCALAR",
            "min": [
                0
            ],
            "max": [
                935
            ]
        },
        {
            "bufferView": 1,
            "byteOffset": 0,
            "componentType": 5126,
            "count": 936,
            "type": "VEC3",
            "min": [
                -0.019050000235438347,
                -0.00948436837643385,
                -0.009525000117719173
            ],
            "max": [
                0.16827499866485596,
                0.009525000117719173,
                0.009525000117719173
            ]
        },
        {
            "bufferView": 2,
            "byteOffset": 0,
            "componentType": 5126,
            "count": 936,
            "type": "VEC3",
            "min": [
                -1.0,
                -1.0,
                -1.0
            ],
            "max": [
                1.0,
                1.0,
                1.0
            ]
        }
    ],
    "materials": [
        {
            "name": "satinfinishstainlesssteel",
            "pbrMetallicRoughness": {
                "baseColorFactor": [
                    1.0,
                    0.8912620430916338,
                    0.8122415004576116,
                    1.0
                ],
                "metallicFactor": 1.0,
                "roughnessFactor": 0.4000000059604645
            }
        }
    ],
    "bufferViews": [
        {
            "buffer": 0,
            "byteOffset": 0,
            "byteLength": 8472,
            "target": 34963
        },
        {
            "buffer": 0,
            "byteOffset": 8472,
            "byteLength": 11232,
            "byteStride": 12,
            "target": 34962
        },
        {
            "buffer": 0,
            "byteOffset": 19704,
            "byteLength": 11232,
            "byteStride": 12,
            "target": 34962
        }
    ],
    "buffers": [
        {
            "uri": "Shaft.bin",
            "byteLength": 30936
        }
    ]
}
