{
    "asset": {
        "generator": "SOLIDWORKSGLTF",
        "version": "2.0"
    },
    "scene": 0,
    "scenes": [
        {
            "name": "Default",
            "nodes": [
                0,
                1
            ]
        }
    ],
    "nodes": [
        {
            "matrix": [
                0.116944604983626,
                0.0409910218767045,
                0.9922921422095046,
                0.0,
                0.633010504830519,
                0.7668132216079993,
                -0.10627880287890518,
                0.0,
                -0.7652592110778121,
                0.6405600825002016,
                0.06372692184547755,
                0.0,
                -0.4870702354428999,
                0.5061956418000225,
                0.04452671851178981,
                1.0
            ],
            "camera": 0,
            "name": "current camera"
        },
        {
            "mesh": 0,
            "name": "Control Bracket Casting"
        }
    ],
    "cameras": [
        {
            "type": "orthographic",
            "orthographic": {
                "xmag": 0.16863745449793366,
                "ymag": 0.13031076029385782,
                "zfar": 0.9260721169893842,
                "znear": 0.5850308468807133
            }
        }
    ],
    "meshes": [
        {
            "primitives": [
                {
                    "attributes": {
                        "POSITION": 1,
                        "NORMAL": 2
                    },
                    "indices": 0,
                    "material": 0,
                    "mode": 4
                }
            ]
        }
    ],
    "accessors": [
        {
            "bufferView": 0,
            "byteOffset": 0,
            "componentType": 5125,
            "count": 9924,
            "type": "SCALAR",
            "min": [
                0
            ],
            "max": [
                4537
            ]
        },
        {
            "bufferView": 1,
            "byteOffset": 0,
            "componentType": 5126,
            "count": 4538,
            "type": "VEC3",
            "min": [
                -0.044449999928474426,
                -2.0816681711721685e-17,
                -0.03175000101327896
            ],
            "max": [
                0.1396999955177307,
                0.11725818365812302,
                0.03175000101327896
            ]
        },
        {
            "bufferView": 2,
            "byteOffset": 0,
            "componentType": 5126,
            "count": 4538,
            "type": "VEC3",
            "min": [
                -1.0,
                -1.0,
                -1.0
            ],
            "max": [
                1.0,
                1.0,
                1.0
            ]
        }
    ],
    "materials": [
        {
            "name": "mattesteel",
            "pbrMetallicRoughness": {
                "baseColorFactor": [
                    0.38891028388129995,
                    0.3488648621678924,
                    0.31118052762160187,
                    1.0
                ],
                "metallicFactor": 1.0,
                "roughnessFactor": 0.5
            }
        }
    ],
    "bufferViews": [
        {
            "buffer": 0,
            "byteOffset": 0,
            "byteLength": 39696,
            "target": 34963
        },
        {
            "buffer": 0,
            "byteOffset": 39696,
            "byteLength": 54456,
            "byteStride": 12,
            "target": 34962
        },
        {
            "buffer": 0,
            "byteOffset": 94152,
            "byteLength": 54456,
            "byteStride": 12,
            "target": 34962
        }
    ],
    "buffers": [
        {
            "uri": "Control Bracket Casting.bin",
            "byteLength": 148608
        }
    ]
}
