{
    "asset": {
        "generator": "SOLIDWORKSGLTF",
        "version": "2.0"
    },
    "scene": 0,
    "scenes": [
        {
            "name": "Default",
            "nodes": [
                0,
                1
            ]
        }
    ],
    "nodes": [
        {
            "matrix": [
                -0.6170850565174204,
                0.6271714199136966,
                0.47524945351502523,
                0.0,
                0.703993429983515,
                0.7098448013574922,
                -0.022662932859371987,
                0.0,
                -0.3515668977064509,
                0.3205875356734575,
                -0.8795591784569596,
                0.0,
                -0.41139235046202355,
                0.37514129086082126,
                -1.0292320470341678,
                1.0
            ],
            "camera": 0,
            "name": "current camera"
        },
        {
            "mesh": 0,
            "name": "Extruded BasePlate"
        }
    ],
    "cameras": [
        {
            "type": "orthographic",
            "orthographic": {
                "xmag": 0.30601090572420375,
                "ymag": 0.23646297260506652,
                "zfar": 1.378463535318557,
                "znear": 1.0660203044749363
            }
        }
    ],
    "meshes": [
        {
            "primitives": [
                {
                    "attributes": {
                        "POSITION": 1,
                        "NORMAL": 2
                    },
                    "indices": 0,
                    "material": 0,
                    "mode": 4
                }
            ]
        }
    ],
    "accessors": [
        {
            "bufferView": 0,
            "byteOffset": 0,
            "componentType": 5125,
            "count": 3096,
            "type": "SCALAR",
            "min": [
                0
            ],
            "max": [
                1553
            ]
        },
        {
            "bufferView": 1,
            "byteOffset": 0,
            "componentType": 5126,
            "count": 1554,
            "type": "VEC3",
            "min": [
                -0.08889999985694885,
                -0.019050000235438347,
                -0.05079999938607216
            ],
            "max": [
                0.08889999985694885,
                0.019050000235438347,
                0.05079999938607216
            ]
        },
        {
            "bufferView": 2,
            "byteOffset": 0,
            "componentType": 5126,
            "count": 1554,
            "type": "VEC3",
            "min": [
                -1.0,
                -1.0,
                -1.0
            ],
            "max": [
                1.0,
                1.0,
                1.0
            ]
        }
    ],
    "materials": [
        {
            "name": "polishedsteel",
            "pbrMetallicRoughness": {
                "baseColorFactor": [
                    0.5731588967040465,
                    0.5417983787732485,
                    0.5113978427838181,
                    1.0
                ],
                "metallicFactor": 1.0,
                "roughnessFactor": 0.13999999761581422
            }
        }
    ],
    "bufferViews": [
        {
            "buffer": 0,
            "byteOffset": 0,
            "byteLength": 12384,
            "target": 34963
        },
        {
            "buffer": 0,
            "byteOffset": 12384,
            "byteLength": 18648,
            "byteStride": 12,
            "target": 34962
        },
        {
            "buffer": 0,
            "byteOffset": 31032,
            "byteLength": 18648,
            "byteStride": 12,
            "target": 34962
        }
    ],
    "buffers": [
        {
            "uri": "Extruded BasePlate.bin",
            "byteLength": 49680
        }
    ]
}
