{
    "asset": {
        "generator": "SOLIDWORKSGLTF",
        "version": "2.0"
    },
    "scene": 0,
    "scenes": [
        {
            "name": "Default",
            "nodes": [
                0,
                1
            ]
        }
    ],
    "nodes": [
        {
            "matrix": [
                0.6499746947082117,
                0.0,
                0.7599558515064986,
                0.0,
                0.436877857942377,
                0.8182428737362766,
                -0.37365269545325125,
                0.0,
                -0.6218284598493764,
                0.5748726811910615,
                0.5318371620539061,
                0.0,
                -0.08642645451009288,
                0.0910541253488763,
                0.08423772637536829,
                1.0
            ],
            "camera": 0,
            "name": "current camera"
        },
        {
            "mesh": 0,
            "name": "End Cap"
        }
    ],
    "cameras": [
        {
            "type": "orthographic",
            "orthographic": {
                "xmag": 0.03801744669586008,
                "ymag": 0.029377117901346422,
                "zfar": 0.2093643978630901,
                "znear": 0.1329029090272062
            }
        }
    ],
    "meshes": [
        {
            "primitives": [
                {
                    "attributes": {
                        "POSITION": 1,
                        "NORMAL": 2
                    },
                    "indices": 0,
                    "material": 0,
                    "mode": 4
                },
                {
                    "attributes": {
                        "POSITION": 4,
                        "NORMAL": 5
                    },
                    "indices": 3,
                    "material": 1,
                    "mode": 4
                }
            ]
        }
    ],
    "accessors": [
        {
            "bufferView": 0,
            "byteOffset": 0,
            "componentType": 5125,
            "count": 7902,
            "type": "SCALAR",
            "min": [
                0
            ],
            "max": [
                3111
            ]
        },
        {
            "bufferView": 1,
            "byteOffset": 0,
            "componentType": 5126,
            "count": 3112,
            "type": "VEC3",
            "min": [
                -6.808379382304657e-19,
                -0.01587500050663948,
                -0.015843674540519714
            ],
            "max": [
                0.024129999801516533,
                0.01587500050663948,
                0.015843674540519714
            ]
        },
        {
            "bufferView": 2,
            "byteOffset": 0,
            "componentType": 5126,
            "count": 3112,
            "type": "VEC3",
            "min": [
                -1.0,
                -1.0,
                -0.9996891617774963
            ],
            "max": [
                1.0,
                1.0,
                0.9996891617774963
            ]
        },
        {
            "bufferView": 0,
            "byteOffset": 31608,
            "componentType": 5125,
            "count": 216,
            "type": "SCALAR",
            "min": [
                0
            ],
            "max": [
                117
            ]
        },
        {
            "bufferView": 1,
            "byteOffset": 37344,
            "componentType": 5126,
            "count": 118,
            "type": "VEC3",
            "min": [
                0.011264899745583534,
                0.0034290000330656767,
                -0.002705099992454052
            ],
            "max": [
                0.016675099730491638,
                0.009525000117719173,
                0.002705099992454052
            ]
        },
        {
            "bufferView": 2,
            "byteOffset": 37344,
            "componentType": 5126,
            "count": 118,
            "type": "VEC3",
            "min": [
                -1.0,
                0.0,
                -1.0
            ],
            "max": [
                1.0,
                0.0,
                1.0
            ]
        }
    ],
    "materials": [
        {
            "name": "satinfinishaluminum",
            "pbrMetallicRoughness": {
                "baseColorFactor": [
                    0.7299189080773666,
                    0.8122415004576116,
                    1.0,
                    1.0
                ],
                "metallicFactor": 1.0,
                "roughnessFactor": 0.4000000059604645
            }
        },
        {
            "pbrMetallicRoughness": {
                "baseColorFactor": [
                    1.0,
                    1.0,
                    1.0,
                    1.0
                ],
                "metallicFactor": 1.0,
                "roughnessFactor": 1.0
            }
        }
    ],
    "bufferViews": [
        {
            "buffer": 0,
            "byteOffset": 0,
            "byteLength": 32472,
            "target": 34963
        },
        {
            "buffer": 0,
            "byteOffset": 32472,
            "byteLength": 38760,
            "byteStride": 12,
            "target": 34962
        },
        {
            "buffer": 0,
            "byteOffset": 71232,
            "byteLength": 38760,
            "byteStride": 12,
            "target": 34962
        }
    ],
    "buffers": [
        {
            "uri": "End Cap.bin",
            "byteLength": 109992
        }
    ]
}
